<svg width="24" height="24" viewBox="0 0 24 24" fill="none" xmlns="http://www.w3.org/2000/svg">
<path d="M12 2C6.47714 2 2 6.47714 2 12C2 17.5229 6.47714 22 12 22C17.5229 22 22 17.5229 22 12C22 6.47714 17.5229 2 12 2ZM16.7231 15.982C16.659 16.0573 15.1193 17.826 12.2937 17.826C8.87867 17.826 6.4677 15.2752 6.4677 11.9563C6.4677 8.67798 8.96786 6.17403 12.2646 6.17403C14.9644 6.17403 16.376 7.67867 16.4348 7.74274C16.5072 7.82165 16.5514 7.92234 16.5604 8.02904C16.5694 8.13574 16.5428 8.24243 16.4847 8.33238L15.5823 9.72976C15.419 9.98246 15.0672 10.0262 14.8471 9.8223C14.8377 9.81367 13.7773 8.8594 12.3519 8.8594C10.4924 8.8594 9.37141 10.2132 9.37141 11.9272C9.37141 13.5241 10.4002 15.1406 12.3665 15.1406C13.9268 15.1406 14.9987 13.9979 15.0094 13.9864C15.2163 13.762 15.5763 13.7834 15.7556 14.0288L16.7454 15.3825C16.8097 15.4704 16.8424 15.5774 16.8384 15.6861C16.8343 15.7949 16.7937 15.8991 16.7231 15.982Z" fill="#2E71AE"/>
</svg>
